# xmcd
#
# Track frame offsets:
#	150
#	18467
#	34460
#	47225
#	64654
#	82672
#	96779
#	112140
#	124765
#	135701
#	150630
#	165303
#	178934
#	194368
#	212008
#	229794
#	244985
#	261254
#	275175
#	292702
#	305794
#	321724
#	334531
#
# Disc length: 4683 seconds
#
# Revision: 0
# Processed by: cddbd v1.5.1PL0 Copyright (c) Steve Scherf et al.
# Submitted via: EasyCDDAExtractor 8.2.1.1
#
DISCID=5a124917
DTITLE=Various Artist - CDX Volume 373
DYEAR=2005
DGENRE=Country
TTITLE0=Sara Evans - A Real Fine Place To Start
TTITLE1=Lisa Brokop - Big Picture
TTITLE2=Aaron Tippin - Come Friday
TTITLE3=Jo Dee Messina - Delicious Surprise
TTITLE4=Tim McGraw - Do You Want Fries With That
TTITLE5=Dwight Yoakam - Intentional Heartache
TTITLE6=Aaron Lines - It Takes A Man
TTITLE7=Matt Jenkins - King Of The Castle
TTITLE8=Clint Black - Rainbow In The Rain
TTITLE9=Jessica Andrews - Summer Girl
TTITLE10=Tracy Lawrence - Used To The Pain
TTITLE11=Wayne Warner - 10,000 Tears Ago
TTITLE12=Elizabeth Cook - Before I Go That Far
TTITLE13=Shawn King - In My Own Backyard
TTITLE14=Eli Young Band - That's The Way
TTITLE15=Derryl Perry - You Will
TTITLE16=Miko Marks - Freeway Bound
TTITLE17=Rick Monroe - Midnight Rider
TTITLE18=Shelly Lane - Right Finger Wrong Hand
TTITLE19=Bob Wootton and The Tennessee Three - Mad Dog 20/20 Vision
TTITLE20=Tammy Chochran Anita Cochran and Deborah Allen - Destiny's Song
TTITLE21=Aaron Tippin - It's Friday
TTITLE22=Melva Lee and Melany - Just Like The Movies
EXTD=
EXTT0=
EXTT1=
EXTT2=
EXTT3=
EXTT4=
EXTT5=
EXTT6=
EXTT7=
EXTT8=
EXTT9=
EXTT10=
EXTT11=
EXTT12=
EXTT13=
EXTT14=
EXTT15=
EXTT16=
EXTT17=
EXTT18=
EXTT19=
EXTT20=
EXTT21=
EXTT22=
PLAYORDER=
